PathFileType	4	(X/Y/Z)	TVC_20_Cal_03_0_static_RCNL2025.trc
DataRate	CameraRate	NumFrames	NumMarkers	Units	OrigDataRate	OrigDataStartFrame	OrigNumFrames
100	100	11	27	mm	100	1	133
Frame#	Time	R_Shoulder			L_Shoulder			C7			J_Notch			R_Elbow			L_Elbow			R_Wrist			L_Wrist			R_Asis			L_Asis			R_Psis			L_Psis			Sacral			Thoracic			Sternum			R_Thigh_Lateral			R_Knee_Lateral			R_Shank_Lateral			R_Ankle_Lateral			R_Heel			R_Toe			L_Thigh_Lateral			L_Knee_Lateral			L_Shank_Lateral			L_Ankle_Lateral			L_Heel			L_Toe		
		X1	Y1	Z1	X2	Y2	Z2	X3	Y3	Z3	X4	Y4	Z4	X5	Y5	Z5	X6	Y6	Z6	X7	Y7	Z7	X8	Y8	Z8	X9	Y9	Z9	X10	Y10	Z10	X11	Y11	Z11	X12	Y12	Z12	X13	Y13	Z13	X14	Y14	Z14	X15	Y15	Z15	X16	Y16	Z16	X17	Y17	Z17	X18	Y18	Z18	X19	Y19	Z19	X20	Y20	Z20	X21	Y21	Z21	X22	Y22	Z22	X23	Y23	Z23	X24	Y24	Z24	X25	Y25	Z25	X26	Y26	Z26	X27	Y27	Z27
1	0.00000000	-225.091385	1426.911011	-40.440258	-266.646088	1432.635376	-387.372406	-271.338654	1469.899536	-195.782440	-149.335190	1342.596924	-213.205444	-243.407150	1154.505371	124.914276	-277.269897	1131.417114	-512.406250	-134.616550	923.872406	183.973213	-138.358227	915.986542	-562.725677	-192.139923	1010.257080	-59.924191	-175.304245	1018.791809	-340.696625	-338.742981	1013.984985	-162.281342	-346.585846	1007.358948	-250.714264	-342.664413	1010.671967	-206.497803	-373.666931	1238.654297	-209.055817	-135.061157	1198.338989	-217.578140	-240.885742	679.758728	3.215006	-262.270477	470.972260	-59.451504	-309.367615	313.016602	-16.113413	-316.248260	76.309402	-88.951065	-355.382904	52.527794	-143.455643	-167.565247	36.658772	-81.729988	-229.309540	654.000488	-411.405029	-241.147568	462.968719	-356.354828	-256.695312	316.661041	-397.932312	-280.004700	74.247246	-318.961060	-325.991180	62.561802	-276.856079	-138.168091	38.091694	-294.541840
2	0.01000000	-225.099579	1426.882446	-40.419464	-266.651001	1432.648193	-387.371063	-271.403229	1469.906860	-195.844681	-149.334305	1342.576782	-213.188049	-243.432220	1154.516968	124.958168	-277.306152	1131.422607	-512.441956	-134.638058	923.897858	184.016731	-138.442165	915.914551	-562.733032	-192.153336	1010.259277	-59.914005	-175.428360	1018.775940	-340.705841	-338.679047	1013.889465	-162.352554	-346.693512	1007.405823	-250.795853	-342.686279	1010.647644	-206.574203	-373.745667	1238.657227	-209.017029	-135.005203	1198.478027	-217.567245	-240.944107	679.793823	3.263650	-262.292419	470.952209	-59.460747	-309.310364	313.019073	-16.134651	-316.302673	76.333778	-88.861824	-355.418213	52.348076	-143.477005	-167.726944	36.685730	-81.464355	-229.317307	653.916504	-411.387299	-241.166687	462.973755	-356.359192	-256.665039	316.675415	-397.898132	-280.124542	74.488998	-318.745239	-325.988556	62.559116	-276.834259	-138.033005	38.044720	-294.603668
3	0.02000000	-225.066299	1426.877075	-40.448833	-266.691315	1432.643311	-387.415009	-271.474915	1469.889648	-195.833023	-149.350204	1342.572266	-213.173233	-243.422729	1154.510498	124.930824	-277.390045	1131.358521	-512.372314	-134.630772	923.889618	184.006638	-138.490883	915.907990	-562.696259	-192.227448	1010.258850	-59.972916	-175.307388	1018.857910	-340.720123	-338.785004	1013.871704	-162.263809	-346.708344	1007.355408	-250.779739	-342.746674	1010.613556	-206.521774	-373.758514	1238.609741	-208.970276	-135.007889	1198.465820	-217.543900	-240.916000	679.683655	3.199743	-262.281372	470.921478	-59.428055	-309.342590	312.956635	-16.128649	-316.197052	76.315964	-88.869347	-355.415039	52.336441	-143.482986	-167.657776	36.640934	-81.640511	-229.315048	653.991150	-411.419556	-241.164825	462.957947	-356.383118	-256.706238	316.622314	-397.930115	-280.074585	74.423447	-318.879700	-325.988495	62.558937	-276.833160	-138.098358	38.001587	-294.616699
4	0.03000000	-225.190002	1426.933716	-40.488865	-266.676971	1432.611816	-387.416443	-271.490601	1469.866089	-195.807159	-149.435516	1342.571533	-213.257568	-243.418091	1154.534912	124.926300	-277.387604	1131.397339	-512.364258	-134.617264	923.910065	183.981178	-138.540508	915.850983	-562.712860	-192.151703	1010.245850	-59.921879	-175.412827	1018.827209	-340.722748	-338.806946	1013.925659	-162.266800	-346.680756	1007.283936	-250.816742	-342.743851	1010.604797	-206.541771	-373.722015	1238.525635	-208.964981	-135.008423	1198.458374	-217.562195	-240.963867	678.935425	3.182803	-262.274689	470.962616	-59.442993	-309.371460	312.942169	-16.133856	-316.139557	76.391373	-88.876770	-355.179169	52.236763	-143.643768	-167.570175	36.676453	-81.725616	-229.352600	654.122009	-411.468781	-241.172653	462.940216	-356.390564	-256.798615	316.616699	-397.981598	-280.073303	74.301918	-318.808594	-325.993530	62.579872	-276.847534	-138.065063	37.995758	-294.603210
5	0.04000000	-225.229919	1426.933716	-40.477306	-266.798035	1432.609253	-387.389008	-271.628845	1469.861206	-195.821716	-149.345383	1342.651611	-213.163864	-243.419525	1154.537109	124.927467	-277.388123	1131.382935	-512.371094	-134.631145	923.934326	184.031288	-138.588505	915.845398	-562.716370	-192.149506	1010.260437	-59.906414	-175.410553	1018.820984	-340.752686	-338.805908	1013.923523	-162.255768	-346.713837	1007.207764	-250.754181	-342.759872	1010.565643	-206.504974	-373.795715	1238.449951	-208.910049	-134.982697	1198.543457	-217.569855	-240.867828	679.576965	3.200190	-262.275635	470.926605	-59.434643	-309.368469	313.010559	-16.121878	-316.157379	76.331985	-88.907425	-355.362274	52.432915	-143.357620	-167.546463	36.627163	-81.750443	-229.378754	653.971313	-411.504089	-241.158569	462.948334	-356.386780	-256.772522	316.694305	-397.987946	-280.142181	74.440956	-318.725922	-325.994781	62.582241	-276.848938	-138.060257	37.994896	-294.597260
6	0.05000000	-225.256302	1426.919678	-40.437286	-266.824890	1432.594604	-387.372498	-271.643616	1469.864136	-195.818680	-149.304321	1342.666382	-213.185287	-243.416245	1154.501099	124.934937	-277.506317	1131.352905	-512.330383	-134.640820	923.971191	184.016724	-138.657223	915.854584	-562.713928	-192.240662	1010.266418	-59.964111	-175.430359	1018.890747	-340.748444	-338.812531	1013.864075	-162.235458	-346.787109	1007.268677	-250.748474	-342.799820	1010.566376	-206.491966	-373.861511	1238.451660	-208.973236	-134.970001	1198.553711	-217.549042	-241.084137	679.704285	3.242361	-262.271332	470.943939	-59.465763	-309.383728	312.968567	-16.114969	-316.207825	76.323677	-88.720879	-355.444611	52.375744	-143.453308	-167.518494	36.667408	-81.703323	-229.325638	654.074158	-411.450531	-241.164490	462.936523	-356.398804	-256.697479	316.706024	-397.989990	-280.095642	74.354904	-318.875519	-325.977905	62.550735	-276.834320	-138.168350	38.037357	-294.519135
7	0.06000000	-225.268265	1426.900269	-40.454025	-266.890259	1432.548584	-387.410645	-271.637604	1469.863403	-195.819061	-149.410187	1342.648071	-213.219574	-243.421326	1154.499268	124.942146	-277.511688	1131.376465	-512.328613	-134.633121	923.955536	184.002747	-138.709335	915.812256	-562.677979	-192.222809	1010.249451	-60.005241	-175.470398	1018.819824	-340.706818	-338.805389	1013.886475	-162.270660	-346.764496	1007.250549	-250.773209	-342.784943	1010.568512	-206.521935	-373.879120	1238.488892	-209.026382	-134.954132	1198.599609	-217.576126	-241.041931	679.874756	3.176630	-262.274811	470.922211	-59.476883	-309.356262	312.985352	-16.135965	-316.170105	76.301186	-88.868088	-355.425446	52.429817	-143.422470	-167.583084	36.545620	-81.759369	-229.457153	654.074463	-411.508331	-241.187927	462.936890	-356.416687	-256.730072	316.583893	-397.873444	-280.021851	74.209816	-318.955292	-325.992157	62.554890	-276.824371	-138.059235	38.041805	-294.626526
8	0.07000000	-225.357651	1426.939819	-40.504856	-266.894836	1432.539917	-387.407837	-271.699707	1469.853027	-195.899460	-149.420837	1342.690918	-213.256088	-243.518448	1154.523071	124.885674	-277.540710	1131.381348	-512.382080	-134.581619	924.002167	183.961990	-138.741070	915.822144	-562.675385	-192.257172	1010.274536	-59.942707	-175.574020	1018.877502	-340.741272	-338.804382	1013.901733	-162.256271	-346.836914	1007.320068	-250.796722	-342.820648	1010.610901	-206.526497	-373.873718	1238.447510	-208.969894	-134.966370	1198.570801	-217.552414	-241.062347	679.668518	3.170142	-262.263550	470.961731	-59.461529	-309.388580	313.040039	-16.113539	-316.201019	76.372948	-88.949860	-355.388824	52.431881	-143.510208	-167.604233	36.644581	-81.696419	-229.495346	654.157043	-411.445435	-241.205627	462.952667	-356.411255	-256.823517	316.592743	-397.935303	-279.980286	74.200256	-318.967529	-325.981750	62.525520	-276.842712	-138.100235	38.059620	-294.535858
9	0.08000000	-225.427734	1426.911011	-40.449238	-266.930237	1432.549438	-387.453033	-271.771912	1469.854004	-195.854279	-149.408829	1342.734619	-213.276703	-243.527588	1154.524658	124.875740	-277.543518	1131.280151	-512.395142	-134.624016	923.982483	184.002113	-138.715809	915.765839	-562.680664	-192.300415	1010.321350	-59.952847	-175.588531	1018.882019	-340.775146	-338.878601	1013.928711	-162.217285	-346.818451	1007.301392	-250.843704	-342.848526	1010.615051	-206.530495	-373.944672	1238.448975	-208.922974	-134.933914	1198.680176	-217.577942	-241.024796	679.769104	3.183565	-262.260590	470.973267	-59.452316	-309.334961	313.059174	-16.128044	-316.235382	76.313042	-88.971863	-355.207214	52.476059	-143.685150	-167.745392	36.605659	-81.490059	-229.487610	654.233337	-411.547729	-241.227463	462.989014	-356.438507	-256.717804	316.653290	-397.932861	-280.103607	74.479385	-318.761139	-325.831146	62.430023	-276.846283	-138.091812	38.064816	-294.573090
10	0.09000000	-225.472183	1426.983032	-40.450581	-266.960449	1432.532471	-387.503326	-271.848053	1469.883057	-195.896988	-149.404022	1342.735596	-213.257812	-243.519409	1154.522583	124.878822	-277.602448	1131.295288	-512.345398	-134.668900	923.981140	184.002136	-138.792805	915.741241	-562.623169	-192.361374	1010.361328	-60.007523	-175.565628	1018.890076	-340.765594	-338.959320	1013.849182	-162.248581	-346.829132	1007.201721	-250.821320	-342.894226	1010.525452	-206.534950	-373.949921	1238.505493	-209.016113	-134.903519	1198.706055	-217.610870	-240.988876	679.778198	3.170555	-262.303101	470.984161	-59.452480	-309.356659	313.034363	-16.114916	-316.251312	76.311760	-88.948578	-355.383209	52.436859	-143.446014	-167.582367	36.621174	-81.744934	-229.540680	654.220764	-411.602783	-241.242538	463.010895	-356.426331	-256.754639	316.760406	-398.047607	-279.856934	74.242271	-319.141235	-325.966644	62.559723	-276.830200	-138.112411	38.033859	-294.635437
11	0.10000000	-225.486618	1427.016113	-40.404018	-266.975616	1432.518677	-387.488312	-271.851715	1469.883423	-195.920853	-149.391235	1342.712769	-213.290512	-243.511780	1154.544678	124.880730	-277.604797	1131.240845	-512.351868	-134.647026	923.970367	183.982986	-138.776905	915.700470	-562.601776	-192.373260	1010.311890	-60.024220	-175.665649	1018.875366	-340.800537	-338.931854	1013.855835	-162.298218	-346.935211	1007.234009	-250.732590	-342.933533	1010.544922	-206.515404	-374.034363	1238.433960	-208.948227	-134.889755	1198.760620	-217.574219	-240.839645	679.645630	3.153244	-262.305695	470.987976	-59.449932	-309.379303	313.046875	-16.101990	-316.231232	76.332932	-88.944313	-355.435211	52.361046	-143.453735	-167.545273	36.677738	-81.737305	-229.576233	654.098450	-411.543518	-241.246887	463.021820	-356.436920	-256.886719	316.614136	-398.002991	-280.043060	74.282875	-318.838928	-326.000671	62.586304	-276.825287	-138.036819	38.044895	-294.641754
